<svg xmlns="http://www.w3.org/2000/svg" xmlns:xlink="http://www.w3.org/1999/xlink" x="0" y="0" width="661.3333740234375" height="439.66668701171875" style="
        width:661.3333740234375px;
        height:439.66668701171875px;
        background: transparent;
        fill: none;
">
        
        
        <svg xmlns="http://www.w3.org/2000/svg" class="role-diagram-draw-area"><g class="shapes-region" style="stroke: black; fill: none;"><g class="composite-shape"><path class="real" d=" M123,152 L615.67,152 L615.67,321.33 L123,321.33 Z" style="stroke-width: 1; stroke: rgb(0, 0, 0); fill: none; fill-opacity: 1;"/></g><g class="composite-shape"><path class="real" d=" M43,171.92 L85,171.92 L85,166.33 L113,177.5 L85,188.67 L85,183.08 L43,183.08 Z" style="stroke-width: 1; stroke: rgb(11, 11, 11); fill: rgb(255, 0, 0); fill-opacity: 1; stroke-opacity: 1;"/></g><g class="composite-shape"><path class="real" d=" M43,221.58 L85,221.58 L85,216 L113,227.17 L85,238.33 L85,232.75 L43,232.75 Z" style="stroke-width: 1; stroke: rgb(11, 11, 11); fill: rgb(255, 0, 0); fill-opacity: 1; stroke-opacity: 1;"/></g><g class="composite-shape"><path class="real" d=" M43,245.92 L85,245.92 L85,240.33 L113,251.5 L85,262.67 L85,257.08 L43,257.08 Z" style="stroke-width: 1; stroke: rgb(11, 11, 11); fill: rgb(255, 0, 0); fill-opacity: 1; stroke-opacity: 1;"/></g><g class="composite-shape"><path class="real" d=" M43,274.25 L85,274.25 L85,268.67 L113,279.83 L85,291 L85,285.42 L43,285.42 Z" style="stroke-width: 1; stroke: rgb(11, 11, 11); fill: rgb(255, 0, 0); fill-opacity: 1; stroke-opacity: 1;"/></g><g class="composite-shape"><path class="real" d=" M43,297.58 L85,297.58 L85,292 L113,303.17 L85,314.33 L85,308.75 L43,308.75 Z" style="stroke-width: 1; stroke: rgb(11, 11, 11); fill: rgb(255, 0, 0); fill-opacity: 1; stroke-opacity: 1;"/></g><g class="composite-shape"><path class="real" d=" M43,197.25 L85,197.25 L85,191.67 L113,202.83 L85,214 L85,208.42 L43,208.42 Z" style="stroke-width: 1; stroke: rgb(11, 11, 11); fill: rgb(255, 0, 0); fill-opacity: 1; stroke-opacity: 1;"/></g><g class="arrow-line"><path class="connection real" stroke-dasharray="" d="  M123.67,142.33 L613,143" style="stroke: rgb(0, 0, 0); stroke-width: 1; fill: none; fill-opacity: 1;"/><g stroke="#000" transform="matrix(-0.9999990252244151,-0.0013962629479145109,0.0013962629479145109,-0.9999990252244151,615,143.00000000000003)" style="stroke: rgb(0, 0, 0); stroke-width: 1;"><path d=" M10.93,-3.29 Q4.96,-0.45 0,0 Q4.96,0.45 10.93,3.29"/></g></g><g class="arrow-line"><path class="connection real" stroke-dasharray="" d="  M615,143 L125.67,142.34" style="stroke: rgb(0, 0, 0); stroke-width: 1; fill: none; fill-opacity: 1;"/><g stroke="#000" transform="matrix(0.9999990252244151,0.0013962629479148325,-0.0013962629479148325,0.9999990252244151,123.6666259765625,142.33331298828125)" style="stroke: rgb(0, 0, 0); stroke-width: 1;"><path d=" M10.93,-3.29 Q4.96,-0.45 0,0 Q4.96,0.45 10.93,3.29"/></g></g><g class="arrow-line"><path class="connection real" stroke-dasharray="" d="  M625.67,150.5 L626.08,317.33" style="stroke: rgb(0, 0, 0); stroke-width: 1; fill: none; fill-opacity: 1;"/><g stroke="#000" transform="matrix(-0.0024434585213449675,-0.9999970147507714,0.9999970147507714,-0.0024434585213449675,626.0873937269158,319.33331298828125)" style="stroke: rgb(0, 0, 0); stroke-width: 1;"><path d=" M10.93,-3.29 Q4.96,-0.45 0,0 Q4.96,0.45 10.93,3.29"/></g></g><g class="arrow-line"><path class="connection real" stroke-dasharray="" d="  M626.09,319.33 L625.67,152.5" style="stroke: rgb(0, 0, 0); stroke-width: 1; fill: none; fill-opacity: 1;"/><g stroke="#000" transform="matrix(0.0024434585213450903,0.9999970147507714,-0.9999970147507714,0.0024434585213450903,625.6666259765625,150.4996512995724)" style="stroke: rgb(0, 0, 0); stroke-width: 1;"><path d=" M10.93,-3.29 Q4.96,-0.45 0,0 Q4.96,0.45 10.93,3.29"/></g></g><g class="composite-shape" data-amt="diagram/shapes/plot" transform="matrix(1,0,0,1,121,139)"><g><g><g class="test-xgi"><line x1="3.710897701060924" y1="0" x2="3.710897701060924" y2="198.33331298828125" fill="none" stroke="#c3c3c3" stroke-width="0.5"/><line x1="47.9011273483885" y1="0" x2="47.9011273483885" y2="198.33331298828125" fill="none" stroke="#c3c3c3" stroke-width="0.5"/><line x1="92.09135699571608" y1="0" x2="92.09135699571608" y2="198.33331298828125" fill="none" stroke="#c3c3c3" stroke-width="0.5"/><line x1="136.28158664304365" y1="0" x2="136.28158664304365" y2="198.33331298828125" fill="none" stroke="#c3c3c3" stroke-width="0.5"/><line x1="180.47181629037124" y1="0" x2="180.47181629037124" y2="198.33331298828125" fill="none" stroke="#c3c3c3" stroke-width="0.5"/><line x1="224.66204593769882" y1="0" x2="224.66204593769882" y2="198.33331298828125" fill="none" stroke="#c3c3c3" stroke-width="0.5"/><line x1="268.8522755850264" y1="0" x2="268.8522755850264" y2="198.33331298828125" fill="none" stroke="#c3c3c3" stroke-width="0.5"/><line x1="313.04250523235396" y1="0" x2="313.04250523235396" y2="198.33331298828125" fill="none" stroke="#c3c3c3" stroke-width="0.5"/><line x1="357.2327348796816" y1="0" x2="357.2327348796816" y2="198.33331298828125" fill="none" stroke="#c3c3c3" stroke-width="0.5"/><line x1="401.4229645270091" y1="0" x2="401.4229645270091" y2="198.33331298828125" fill="none" stroke="#c3c3c3" stroke-width="0.5"/><line x1="445.6131941743367" y1="0" x2="445.6131941743367" y2="198.33331298828125" fill="none" stroke="#c3c3c3" stroke-width="0.5"/></g><g class="test-ygi"><line x1="0" y1="189.7137722829364" x2="488.6666259765625" y2="189.7137722829364" fill="none" stroke="#c3c3c3" stroke-width="0.5"/><line x1="0" y1="145.5235426356088" x2="488.6666259765625" y2="145.5235426356088" fill="none" stroke="#c3c3c3" stroke-width="0.5"/><line x1="0" y1="101.33331298828124" x2="488.6666259765625" y2="101.33331298828124" fill="none" stroke="#c3c3c3" stroke-width="0.5"/><line x1="0" y1="57.143083340953666" x2="488.6666259765625" y2="57.143083340953666" fill="none" stroke="#c3c3c3" stroke-width="0.5"/><line x1="0" y1="12.952853693626082" x2="488.6666259765625" y2="12.952853693626082" fill="none" stroke="#c3c3c3" stroke-width="0.5"/></g></g><g><g class="test-xti" style="font-family: Asana-Math, Asana;"><line x1="0" y1="101.33331298828125" x2="484.6666259765625" y2="101.33331298828125" fill="none" stroke="rgb(21,21,21)" stroke-opacity="1" stroke-width="1"/><line x1="3.710897701060924" y1="97.33331298828125" x2="3.710897701060924" y2="105.33331298828125" fill="none" stroke="rgb(21,21,21)" stroke-opacity="1" stroke-width="1"/><line x1="92.09135699571608" y1="97.33331298828125" x2="92.09135699571608" y2="105.33331298828125" fill="none" stroke="rgb(21,21,21)" stroke-opacity="1" stroke-width="1"/><line x1="136.28158664304365" y1="97.33331298828125" x2="136.28158664304365" y2="105.33331298828125" fill="none" stroke="rgb(21,21,21)" stroke-opacity="1" stroke-width="1"/><line x1="180.47181629037124" y1="97.33331298828125" x2="180.47181629037124" y2="105.33331298828125" fill="none" stroke="rgb(21,21,21)" stroke-opacity="1" stroke-width="1"/><line x1="224.66204593769882" y1="97.33331298828125" x2="224.66204593769882" y2="105.33331298828125" fill="none" stroke="rgb(21,21,21)" stroke-opacity="1" stroke-width="1"/><line x1="268.8522755850264" y1="97.33331298828125" x2="268.8522755850264" y2="105.33331298828125" fill="none" stroke="rgb(21,21,21)" stroke-opacity="1" stroke-width="1"/><line x1="313.04250523235396" y1="97.33331298828125" x2="313.04250523235396" y2="105.33331298828125" fill="none" stroke="rgb(21,21,21)" stroke-opacity="1" stroke-width="1"/><line x1="357.2327348796816" y1="97.33331298828125" x2="357.2327348796816" y2="105.33331298828125" fill="none" stroke="rgb(21,21,21)" stroke-opacity="1" stroke-width="1"/><line x1="401.4229645270091" y1="97.33331298828125" x2="401.4229645270091" y2="105.33331298828125" fill="none" stroke="rgb(21,21,21)" stroke-opacity="1" stroke-width="1"/><line x1="445.6131941743367" y1="97.33331298828125" x2="445.6131941743367" y2="105.33331298828125" fill="none" stroke="rgb(21,21,21)" stroke-opacity="1" stroke-width="1"/><path d="M479.6666259765625,97.73331298828126 L487.6666259765625,101.33331298828125 L479.6666259765625,104.93331298828124 Z" stroke="none" stroke-width="1" fill="rgb(21,21,21)" fill-opacity="1"/></g><g class="test-plot-expression"><defs><clipPath id="cpukc8e1hfg"><rect x="1" y="1" width="486.6666259765625" height="196.33331298828125"/></clipPath></defs><g clip-path="url(#cpukc8e1hfg)"><path d=" M-52.95, 198.33 L-51.04, 197.83 L-49.14, 197.33 L-47.25, 196.83 L-45.37, 196.33 L-43.50, 195.83 L-41.64, 195.33 L-39.79, 194.82 L-37.95, 194.32 L-36.12, 193.82 L-34.30, 193.32 L-32.49, 192.82 L-30.68, 192.32 L-28.89, 191.82 L-27.11, 191.32 L-25.34, 190.81 L-23.57, 190.31 L-21.82, 189.81 L-20.08, 189.31 L-18.34, 188.81 L-16.62, 188.31 L-14.90, 187.81 L-13.20, 187.31 L-11.50, 186.80 L-9.81, 186.30 L-8.14, 185.80 L-6.47, 185.30 L-4.81, 184.80 L-3.17, 184.30 L-1.53, 183.80 L0.10, 183.30 L1.72, 182.79 L3.33, 182.29 L4.92, 181.79 L6.51, 181.29 L8.09, 180.79 L9.66, 180.29 L11.22, 179.79 L12.77, 179.29 L14.31, 178.78 L15.85, 178.28 L17.37, 177.78 L18.88, 177.28 L20.38, 176.78 L21.87, 176.28 L23.36, 175.78 L24.83, 175.28 L26.29, 174.77 L27.75, 174.27 L29.19, 173.77 L30.63, 173.27 L32.05, 172.77 L33.47, 172.27 L34.87, 171.77 L36.27, 171.27 L37.66, 170.76 L39.03, 170.26 L40.40, 169.76 L41.76, 169.26 L43.10, 168.76 L44.44, 168.26 L45.77, 167.76 L47.09, 167.25 L48.40, 166.75 L49.70, 166.25 L50.99, 165.75 L52.27, 165.25 L53.54, 164.75 L54.80, 164.25 L56.05, 163.75 L57.29, 163.24 L58.52, 162.74 L59.74, 162.24 L60.96, 161.74 L62.16, 161.24 L63.35, 160.74 L64.54, 160.24 L65.71, 159.74 L66.87, 159.23 L68.03, 158.73 L69.17, 158.23 L70.31, 157.73 L71.43, 157.23 L72.55, 156.73 L73.65, 156.23 L74.75, 155.73 L75.84, 155.22 L76.91, 154.72 L77.98, 154.22 L79.04, 153.72 L80.09, 153.22 L81.13, 152.72 L82.15, 152.22 L83.17, 151.72 L84.18, 151.21 L85.18, 150.71 L86.17, 150.21 L87.15, 149.71 L88.12, 149.21 L89.08, 148.71 L90.04, 148.21 L90.98, 147.71 L91.91, 147.20 L92.83, 146.70 L93.74, 146.20 L94.65, 145.70 L95.54, 145.20 L96.42, 144.70 L97.30, 144.20 L98.16, 143.70 L99.02, 143.19 L99.86, 142.69 L100.70, 142.19 L101.52, 141.69 L102.34, 141.19 L103.15, 140.69 L103.94, 140.19 L104.73, 139.69 L105.51, 139.18 L106.27, 138.68 L107.03, 138.18 L107.78, 137.68 L108.52, 137.18 L109.25, 136.68 L109.97, 136.18 L110.68, 135.68 L111.38, 135.17 L112.07, 134.67 L112.75, 134.17 L113.42, 133.67 L114.08, 133.17 L114.73, 132.67 L115.37, 132.17 L116.01, 131.67 L116.63, 131.16 L117.24, 130.66 L117.85, 130.16 L118.44, 129.66 L119.02, 129.16 L119.60, 128.66 L120.16, 128.16 L120.72, 127.66 L121.26, 127.15 L121.80, 126.65 L122.32, 126.15 L122.84, 125.65 L123.35, 125.15 L123.84, 124.65 L124.33, 124.15 L124.81, 123.65 L125.28, 123.14 L125.74, 122.64 L126.18, 122.14 L126.62, 121.64 L127.05, 121.14 L127.47, 120.64 L127.88, 120.14 L128.28, 119.63 L128.67, 119.13 L129.05, 118.63 L129.43, 118.13 L129.79, 117.63 L130.14, 117.13 L130.48, 116.63 L130.82, 116.13 L131.14, 115.62 L131.45, 115.12 L131.76, 114.62 L132.05, 114.12 L132.33, 113.62 L132.61, 113.12 L132.87, 112.62 L133.13, 112.12 L133.37, 111.61 L133.61, 111.11 L133.84, 110.61 L134.05, 110.11 L134.26, 109.61 L134.46, 109.11 L134.65, 108.61 L134.82, 108.11 L134.99, 107.60 L135.15, 107.10 L135.30, 106.60 L135.44, 106.10 L135.57, 105.60 L135.69, 105.10 L135.80, 104.60 L135.90, 104.10 L135.99, 103.59 L136.07, 103.09 L136.14, 102.59 L136.21, 102.09 L136.26, 101.59 L136.30, 101.09 L136.33, 100.59 L136.36, 100.09 L136.37, 99.58 L136.38, 99.08 L136.37, 98.58 L136.35, 98.08 L136.33, 97.58 L136.29, 97.08 L136.25, 96.58 L136.20, 96.08 L136.13, 95.57 L136.06, 95.07 L135.98, 94.57 L135.88, 94.07 L135.78, 93.57 L135.67, 93.07 L135.55, 92.57 L135.42, 92.07 L135.28, 91.56 L135.13, 91.06 L134.97, 90.56 L134.80, 90.06 L134.62, 89.56 L134.43, 89.06 L134.23, 88.56 L134.02, 88.06 L133.80, 87.55 L133.57, 87.05 L133.34, 86.55 L133.09, 86.05 L132.83, 85.55 L132.56, 85.05 L132.29, 84.55 L132.00, 84.05 L131.71, 83.54 L131.40, 83.04 L131.09, 82.54 L130.76, 82.04 L130.43, 81.54 L130.08, 81.04 L129.73, 80.54 L129.37, 80.04 L128.99, 79.53 L128.61, 79.03 L128.22, 78.53 L127.82, 78.03 L127.41, 77.53 L126.98, 77.03 L126.55, 76.53 L126.11, 76.02 L125.66, 75.52 L125.20, 75.02 L124.73, 74.52 L124.25, 74.02 L123.76, 73.52 L123.27, 73.02 L122.76, 72.52 L122.24, 72.01 L121.71, 71.51 L121.17, 71.01 L120.63, 70.51 L120.07, 70.01 L119.51, 69.51 L118.93, 69.01 L118.34, 68.51 L117.75, 68.00 L117.14, 67.50 L116.53, 67.00 L115.90, 66.50 L115.27, 66.00 L114.63, 65.50 L113.97, 65.00 L113.31, 64.50 L112.64, 63.99 L111.96, 63.49 L111.26, 62.99 L110.56, 62.49 L109.85, 61.99 L109.13, 61.49 L108.40, 60.99 L107.66, 60.49 L106.91, 59.98 L106.15, 59.48 L105.38, 58.98 L104.60, 58.48 L103.81, 57.98 L103.02, 57.48 L102.21, 56.98 L101.39, 56.48 L100.56, 55.97 L99.73, 55.47 L98.88, 54.97 L98.02, 54.47 L97.16, 53.97 L96.28, 53.47 L95.40, 52.97 L94.50, 52.47 L93.60, 51.96 L92.68, 51.46 L91.76, 50.96 L90.82, 50.46 L89.88, 49.96 L88.93, 49.46 L87.97, 48.96 L86.99, 48.46 L86.01, 47.95 L85.02, 47.45 L84.02, 46.95 L83.01, 46.45 L81.99, 45.95 L80.96, 45.45 L79.92, 44.95 L78.87, 44.45 L77.81, 43.94 L76.74, 43.44 L75.66, 42.94 L74.57, 42.44 L73.48, 41.94 L72.37, 41.44 L71.25, 40.94 L70.12, 40.44 L68.99, 39.93 L67.84, 39.43 L66.68, 38.93 L65.52, 38.43 L64.34, 37.93 L63.16, 37.43 L61.96, 36.93 L60.76, 36.43 L59.55, 35.92 L58.32, 35.42 L57.09, 34.92 L55.85, 34.42 L54.59, 33.92 L53.33, 33.42 L52.06, 32.92 L50.78, 32.42 L49.49, 31.91 L48.19, 31.41 L46.88, 30.91 L45.56, 30.41 L44.23, 29.91 L42.89, 29.41 L41.54, 28.91 L40.18, 28.40 L38.81, 27.90 L37.43, 27.40 L36.04, 26.90 L34.65, 26.40 L33.24, 25.90 L31.82, 25.40 L30.40, 24.90 L28.96, 24.39 L27.51, 23.89 L26.06, 23.39 L24.59, 22.89 L23.12, 22.39 L21.63, 21.89 L20.14, 21.39 L18.63, 20.89 L17.12, 20.38 L15.60, 19.88 L14.07, 19.38 L12.52, 18.88 L10.97, 18.38 L9.41, 17.88 L7.84, 17.38 L6.26, 16.88 L4.67, 16.37 L3.06, 15.87 L1.45, 15.37 L-0.17, 14.87 L-1.80, 14.37 L-3.43, 13.87 L-5.08, 13.37 L-6.74, 12.87 L-8.41, 12.36 L-10.09, 11.86 L-11.78, 11.36 L-13.47, 10.86 L-15.18, 10.36 L-16.90, 9.86 L-18.62, 9.36 L-20.36, 8.86 L-22.10, 8.35 L-23.86, 7.85 L-25.62, 7.35 L-27.40, 6.85 L-29.18, 6.35 L-30.98, 5.85 L-32.78, 5.35 L-34.59, 4.85 L-36.42, 4.34 L-38.25, 3.84 L-40.09, 3.34 L-41.94, 2.84 L-43.80, 2.34 L-45.68, 1.84 L-47.56, 1.34 L-49.45, 0.84 L-51.35, 0.33 L-52.62, 0.00" style="stroke-width: 2; stroke: rgb(60, 180, 75); stroke-opacity: 0.8;"/></g></g><g class="test-xtl" style="font-family: &quot;Open Sans&quot;, verdana, arial, sans-serif;"><text text-anchor="middle" font-size="11" dominant-baseline="hanging" stroke="none" fill="rgb(255,255,255)" fill-opacity="1" x="0.5758977010609243" y="108.33331298828125">-10</text><text text-anchor="middle" font-size="11" dominant-baseline="hanging" stroke="none" fill="rgb(255,255,255)" fill-opacity="1" x="92.09135699571608" y="108.33331298828125">10</text><text text-anchor="middle" font-size="11" dominant-baseline="hanging" stroke="none" fill="rgb(255,255,255)" fill-opacity="1" x="136.28158664304365" y="108.33331298828125">20</text><text text-anchor="middle" font-size="11" dominant-baseline="hanging" stroke="none" fill="rgb(255,255,255)" fill-opacity="1" x="180.47181629037124" y="108.33331298828125">30</text><text text-anchor="middle" font-size="11" dominant-baseline="hanging" stroke="none" fill="rgb(255,255,255)" fill-opacity="1" x="224.66204593769882" y="108.33331298828125">40</text><text text-anchor="middle" font-size="11" dominant-baseline="hanging" stroke="none" fill="rgb(255,255,255)" fill-opacity="1" x="268.8522755850264" y="108.33331298828125">50</text><text text-anchor="middle" font-size="11" dominant-baseline="hanging" stroke="none" fill="rgb(255,255,255)" fill-opacity="1" x="313.04250523235396" y="108.33331298828125">60</text><text text-anchor="middle" font-size="11" dominant-baseline="hanging" stroke="none" fill="rgb(255,255,255)" fill-opacity="1" x="357.2327348796816" y="108.33331298828125">70</text><text text-anchor="middle" font-size="11" dominant-baseline="hanging" stroke="none" fill="rgb(255,255,255)" fill-opacity="1" x="401.4229645270091" y="108.33331298828125">80</text><text text-anchor="middle" font-size="11" dominant-baseline="hanging" stroke="none" fill="rgb(255,255,255)" fill-opacity="1" x="445.6131941743367" y="108.33331298828125">90</text><text text-anchor="middle" font-size="11" dominant-baseline="hanging" stroke="none" fill="rgb(255,255,255)" fill-opacity="1" x="39.9011273483885" y="106.33331298828125">0</text></g><rect class="real" x="1" y="1" width="486.6666259765625" height="196.33331298828125" style="fill: transparent; stroke: none;"/></g></g></g><g class="composite-shape axis2d" style="stroke-width: 1; stroke: rgb(0, 0, 0);"><path class="real" d=" M117,240.43 L180.67,240.43 M123.37,187.33 L123.37,246.33"/><path d=" M173.67,235.43 L180.67,240.43 L173.67,245.43"/><path d=" M118.37,194.33 L123.37,187.33 L128.37,194.33"/></g><g/></g><g/><g/><g/></svg>
        <svg xmlns="http://www.w3.org/2000/svg" xmlns:xlink="http://www.w3.org/1999/xlink" width="660" height="438.3333435058594" style="width:660px;height:438.3333435058594px;font-family:Asana-Math, Asana;background:transparent;"><g><g><g><g transform="matrix(1,0,0,1,2.6666259765625,251.14668701171874)"><path transform="matrix(0.024480000000000002,0,0,-0.024480000000000002,0,0)" d="M795 664L798 692L782 692L691 689C676 689 655 689 611 690L548 692L545 664L593 662C617 661 628 653 628 634C628 629 628 626 627 622L556 177C508 119 478 93 427 68C389 48 352 39 314 39C229 39 175 84 175 154C175 171 177 187 182 215L270 692L239 691C212 690 192 689 181 689C171 689 151 690 123 691L91 692L88 664L140 662C166 661 174 656 174 639C174 630 171 602 167 581L103 206C99 185 97 160 97 144C97 43 164 -19 276 -19C320 -19 361 -9 409 15C468 44 500 69 552 129C544 83 538 57 525 2L530 -3L552 -3L614 0C618 0 640 -1 672 -2L704 -3L709 25L649 29C626 31 617 37 617 50C617 65 618 70 623 106L708 613C714 651 721 657 759 661Z" stroke="rgb(255,0,0)" stroke-opacity="1" stroke-width="8" fill="rgb(255,0,0)" fill-opacity="1"></path></g></g><g><g><g><g><g transform="matrix(1,0,0,1,22.42706298828125,255.46931298828125)"><path transform="matrix(0.017136,0,0,-0.017136,0,0)" d="M263 689C108 689 29 566 29 324C29 207 50 106 85 57C120 8 176 -20 238 -20C389 -20 465 110 465 366C465 585 400 689 263 689ZM245 654C342 654 381 556 381 316C381 103 343 15 251 15C154 15 113 116 113 360C113 571 150 654 245 654Z" stroke="rgb(255,0,0)" stroke-opacity="1" stroke-width="8" fill="rgb(255,0,0)" fill-opacity="1"></path></g></g></g></g></g></g></g><g><g><g><g transform="matrix(1,0,0,1,334.6666259765625,129.14665649414061)"><path transform="matrix(0.024480000000000002,0,0,-0.024480000000000002,0,0)" d="M316 -3C388 -3 437 8 489 34C645 114 741 265 741 431C741 529 711 599 650 642C604 675 519 693 424 692L220 689L210 689C201 689 198 689 97 692L94 664L147 662C171 661 182 653 182 635C182 621 178 589 173 559L86 55C81 31 56 29 33 23L28 -3L121 0L176 0C211 0 282 -3 316 -3ZM384 655C566 655 649 579 649 415C649 225 549 41 329 41C285 41 236 46 168 56C168 68 169 75 172 93L268 650C291 650 349 655 384 655Z" stroke="rgb(0,0,0)" stroke-opacity="1" stroke-width="8" fill="rgb(0,0,0)" fill-opacity="1"></path></g></g></g></g><g><g><g><g transform="matrix(1,0,0,1,635.6666259765625,240.14668701171874)"><path transform="matrix(0.024480000000000002,0,0,-0.024480000000000002,0,0)" d="M349 664L352 692L238 689C222 689 204 689 161 690L97 692L94 664L141 662C165 661 176 653 176 635L81 55C77 37 65 30 21 23L16 -3L57 -2C88 -1 150 0 170 0C170 0 467 -1 467 -1C467 -1 500 0 500 0C499 25 510 103 523 165L492 165L475 103C466 71 457 54 448 49C435 44 371 39 304 39C255 39 228 40 162 46C165 64 256 605 256 613C263 651 270 658 307 661Z" stroke="rgb(0,0,0)" stroke-opacity="1" stroke-width="8" fill="rgb(0,0,0)" fill-opacity="1"></path></g></g></g></g><g><g></g></g><g><g><g><g transform="matrix(1,0,0,1,259.6666259765625,219.14668701171874)"><path transform="matrix(0.024480000000000002,0,0,-0.024480000000000002,0,0)" d="M492 473L485 482L417 465L407 414C392 336 367 268 336 221C277 130 199 59 159 59C151 59 146 68 146 85C146 99 148 112 153 137L210 408C213 424 215 438 215 451C215 470 206 482 192 482C172 482 134 461 60 408L32 388L39 368L71 389C99 407 110 412 119 412C128 412 136 403 136 392C136 388 135 378 134 374L71 77C69 68 67 44 67 30C67 7 82 -11 102 -11C165 -11 286 101 370 239L333 97C326 73 322 46 322 31C322 6 333 -9 352 -9C378 -9 414 12 512 85L502 103L476 86C452 70 426 59 415 59C407 59 402 66 402 76C402 112 477 416 492 473Z" stroke="rgb(0,0,0)" stroke-opacity="1" stroke-width="8" fill="rgb(0,0,0)" fill-opacity="1"></path></g></g><g><g transform="matrix(1,0,0,1,273.2603759765625,219.14668701171874)"><path transform="matrix(0.024480000000000002,0,0,-0.024480000000000002,0,0)" d="M146 266C146 526 243 632 301 700L282 726C225 675 60 542 60 266C60 159 85 58 133 -32C168 -99 200 -138 282 -215L301 -194C255 -137 146 -15 146 266Z" stroke="rgb(0,0,0)" stroke-opacity="1" stroke-width="8" fill="rgb(0,0,0)" fill-opacity="1"></path></g></g><g><g transform="matrix(1,0,0,1,281.39581298828125,219.14668701171874)"><path transform="matrix(0.024480000000000002,0,0,-0.024480000000000002,0,0)" d="M-7 -180C-8 -187 -8 -193 -8 -198C-8 -241 29 -276 74 -276C180 -276 290 -152 349 33L490 473L479 482C450 471 427 465 405 463L370 331C358 284 323 211 290 162C255 111 206 67 184 67C172 67 163 90 164 115L180 322C182 353 184 391 184 419C184 464 177 482 160 482C147 482 133 475 85 442L3 386L14 368L64 398C69 401 80 410 89 410C103 410 111 391 111 358C111 357 111 351 110 343L93 100L92 60C92 18 110 -11 135 -11C172 -11 256 74 331 187L282 16C231 -161 181 -234 111 -234C76 -234 49 -207 49 -172C49 -167 50 -159 51 -150L41 -146Z" stroke="rgb(0,0,0)" stroke-opacity="1" stroke-width="8" fill="rgb(0,0,0)" fill-opacity="1"></path></g></g><g><g transform="matrix(1,0,0,1,293.61456298828125,219.14668701171874)"><path transform="matrix(0.024480000000000002,0,0,-0.024480000000000002,0,0)" d="M51 726L32 700C87 636 187 526 187 266C187 -10 83 -131 32 -194L51 -215C104 -165 273 -23 273 265C273 542 108 675 51 726Z" stroke="rgb(0,0,0)" stroke-opacity="1" stroke-width="8" fill="rgb(0,0,0)" fill-opacity="1"></path></g></g></g><g></g></g><g><g><g><g transform="matrix(1,0,0,1,164.6666259765625,251)"><path transform="matrix(0.017,0,0,-0.017,0,0)" d="M9 1C24 -7 40 -11 52 -11C85 -11 124 18 155 65L231 182L242 113C255 28 278 -11 314 -11C336 -11 368 6 400 35L449 79L440 98C404 68 379 53 363 53C348 53 335 63 325 83C316 102 305 139 300 168L282 269L317 318C364 383 391 406 422 406C438 406 450 398 455 383L469 387L484 472C472 479 463 482 454 482C414 482 374 446 312 354L275 299L269 347C257 446 230 482 171 482C145 482 123 474 114 461L56 378L73 368C103 402 123 416 142 416C175 416 197 375 214 277L225 215L185 153C142 86 108 54 80 54C65 54 54 58 52 63L41 91L21 88C21 53 13 27 9 1Z" stroke="rgb(0,0,0)" stroke-opacity="1" stroke-width="8" fill="rgb(0,0,0)" fill-opacity="1"></path></g></g></g></g><g><g><g><g transform="matrix(1,0,0,1,131.6666259765625,201)"><path transform="matrix(0.017,0,0,-0.017,0,0)" d="M-7 -180C-8 -187 -8 -193 -8 -198C-8 -241 29 -276 74 -276C180 -276 290 -152 349 33L490 473L479 482C450 471 427 465 405 463L370 331C358 284 323 211 290 162C255 111 206 67 184 67C172 67 163 90 164 115L180 322C182 353 184 391 184 419C184 464 177 482 160 482C147 482 133 475 85 442L3 386L14 368L64 398C69 401 80 410 89 410C103 410 111 391 111 358C111 357 111 351 110 343L93 100L92 60C92 18 110 -11 135 -11C172 -11 256 74 331 187L282 16C231 -161 181 -234 111 -234C76 -234 49 -207 49 -172C49 -167 50 -159 51 -150L41 -146Z" stroke="rgb(0,0,0)" stroke-opacity="1" stroke-width="8" fill="rgb(0,0,0)" fill-opacity="1"></path></g></g></g></g></svg>
</svg>
